# xmcd
#
# Track frame offsets: 
#        150
#        20250
#        35123
#        49422
#        61475
#        88606
#        106621
#        120851
#        139673
#
# Disc length: 2293 seconds
#
# Revision: 0
# Processed by: cddbd v1.5.2PL0 Copyright (c) Steve Scherf et al.
# Submitted via: ExactAudioCopy v0.95b3
#
DISCID=6f08f309
DTITLE=Bloodrock  - Bloodrock USA (Vinyl) 
DYEAR=1900
DGENRE=
TTITLE0=It's A Sad World
TTITLE1=Don't Eat The Children
TTITLE2=Promises
TTITLE3=Crazy 'Bout You Babe
TTITLE4=Hangman's Dance
TTITLE5=American Burn
TTITLE6=Rock and Roll Candy Man
TTITLE7=Abracadaver
TTITLE8=Magic Man
EXTD=
EXTT0=
EXTT1=
EXTT2=
EXTT3=
EXTT4=
EXTT5=
EXTT6=
EXTT7=
EXTT8=
PLAYORDER=
